<svg class="mask-def" version='1.1' xmlns='http://www.w3.org/2000/svg' xmlns:xlink='http://www.w3.org/1999/xlink'>
		<defs>
			<clipPath id="bean" clipPathUnits="objectBoundingBox">			
				<path d="M.49932.979C.40388.9781.30835.98173.21308.98715a.27219.27219,0,0,1-.07046-.002C.06836.96982.042.87966.02707.81549A1.29242,1.29242,0,0,1-.00075.544Q-.00162.48764.00043.43131a1.02559,1.02559,0,0,1,.0327-.238A.28012.28012,0,0,1,.12532.03678a.21613.21613,0,0,1,.12454-.034Q.332.001.4142.00037L.499,0H.5L.5848.00037Q.667.001.74914.00282a.21613.21613,0,0,1,.12454.034A.28012.28012,0,0,1,.96587.19331a1.02666,1.02666,0,0,1,.0327.238q.002.05631.00117.11267A1.29175,1.29175,0,0,1,.97192.81549C.957.87966.93064.96982.85638.98518a.27219.27219,0,0,1-.07046.002C.69065.98173.59511.9781.49968.979Z"/>
			</clipPath>
			<clipPath id="bread" clipPathUnits="objectBoundingBox">
				<path d="M.50034.99989c.06948.00046.139-.00108.20831-.00636A.3724.3724,0,0,0,.91684.94971C.94345.93237.97354.87964.9711.7666.97031.72314.96213.6814.9642.64A.46724.46724,0,0,1,.976.571C1.04758.18628.94815.04028.84561.01965A2.43434,2.43434,0,0,0,.50033.0001H.5A2.43434,2.43434,0,0,0,.15472.01965C.05219.04028-.04724.18628.02429.571A.46593.46593,0,0,1,.03613.64C.03821.6814.03.72314.02924.7666.02679.87964.05688.93237.0835.94971A.37238.37238,0,0,0,.29169.99353C.361.99881.43051,1.00035.5.99989Z"/>
			</clipPath>

		<clipPath id="single-leaf" clipPathUnits="objectBoundingBox">
			<path d='M0,.87171C.0177.83448.036.79792.05244.76055A.51821.51821,0,0,0,.0699.70607C.07561.68783.08188.66974.08676.65129.09018.63842.09166.625.094.61189.10319.561.11253.51007.12145.4591A.982.982,0,0,1,.15561.34685.29613.29613,0,0,1,.19635.26839.28413.28413,0,0,1,.27684.18955a.33478.33478,0,0,1,.09264-.043A.55777.55777,0,0,1,.44533.13231.37374.37374,0,0,1,.54021.13666a.287.287,0,0,1,.09556.0285A.22348.22348,0,0,1,.7032.21189.18272.18272,0,0,1,.74082.28265.83225.83225,0,0,0,.82785,0l.1198.07589A1.33991,1.33991,0,0,0,.77659.30313c.00767,0,.01381-.00054.01983.0001A.32907.32907,0,0,1,.83963.30906a.1766.1766,0,0,1,.065.03047A.21491.21491,0,0,1,.96146.40944.29157.29157,0,0,1,.99163.494.332.332,0,0,1,.99978.57585.4863.4863,0,0,1,.98142.703.39919.39919,0,0,1,.96178.75069.242.242,0,0,1,.90437.82657.341.341,0,0,1,.84565.86481L.834.86953.83253.86811.8411.854A.14574.14574,0,0,0,.86219.79384.152.152,0,0,0,.84727.709.13739.13739,0,0,0,.81722.66919.1176.1176,0,0,0,.774.6419.30782.30782,0,0,0,.72164.63052.1305.1305,0,0,0,.66851.63486.17589.17589,0,0,0,.60033.66815a.16276.16276,0,0,0-.044.05744.15415.15415,0,0,0-.011.0391A.20619.20619,0,0,0,.54335.803.12978.12978,0,0,0,.57992.89388.1382.1382,0,0,0,.65444.934C.66753.93645.68089.93737.69413.939L.70225.94216a.54064.54064,0,0,1-.05172.0162C.62584.96361.60073.96721.57564.97009.5562.97234.53651.97264.51691.97337.49777.97409.47857.97517.45946.97449.42891.97339.39843.97092.36791.96913.3574.96851.34675.969.33636.96758.31417.96451.29208.9607.27.95681.25075.95343.23125.95076.21244.94561.17331.93489.13413.924.09582.9108.06336.89959.03209.885,0,.87171Z'/>
		</clipPath>
		</defs>
</svg>
